HIERARCHY
ROOT joint_0
{
	OFFSET 0.000000 0.000000 0.000000
	CHANNELS 6 Xposition Yposition Zposition Zrotation Yrotation Xrotation 
	JOINT joint_1
	{
		OFFSET 1.363060 -1.794630 0.839290
		CHANNELS 3 Zrotation Yrotation Xrotation
		JOINT joint_2
		{
			OFFSET 2.448110 -6.726130 0.000000
			CHANNELS 3 Zrotation Yrotation Xrotation
			JOINT joint_3
			{
				OFFSET 2.562200 -7.039590 0.000000
				CHANNELS 3 Zrotation Yrotation Xrotation
				JOINT joint_4
				{
					OFFSET 0.157640 -0.433110 2.322550
					CHANNELS 3 Zrotation Yrotation Xrotation
					End Site
					{
						OFFSET 0.000000 0.000000 0.000000
					}
				}
			}
		}
	}
	JOINT joint_5
	{
		OFFSET -1.305520 -1.794630 0.839290
		CHANNELS 3 Zrotation Yrotation Xrotation
		JOINT joint_6
		{
			OFFSET -2.542530 -6.985550 0.000000
			CHANNELS 3 Zrotation Yrotation Xrotation
			JOINT joint_7
			{
				OFFSET -2.568260 -7.056230 0.000000
				CHANNELS 3 Zrotation Yrotation Xrotation
				JOINT joint_8
				{
					OFFSET -0.164730 -0.452590 2.363150
					CHANNELS 3 Zrotation Yrotation Xrotation
					End Site
					{
						OFFSET 0.000000 0.000000 0.000000
					}
				}
			}
		}
	}
	JOINT joint_9
	{
		OFFSET 0.028270 2.035590 -0.193380
		CHANNELS 3 Zrotation Yrotation Xrotation
		JOINT joint_10
		{
			OFFSET 0.056720 4.548850 -0.042750
			CHANNELS 3 Zrotation Yrotation Xrotation
			JOINT joint_11
			{
				OFFSET -0.054170 1.746240 0.172020
				CHANNELS 3 Zrotation Yrotation Xrotation
				JOINT joint_12
				{
					OFFSET 0.104070 1.761360 -0.123970
					CHANNELS 3 Zrotation Yrotation Xrotation
					End Site
					{
						OFFSET 0.000000 0.000000 0.000000
					}
				}
			}
			JOINT joint_13
			{
				OFFSET 3.362410 1.200890 -0.311210
				CHANNELS 3 Zrotation Yrotation Xrotation
				JOINT joint_14
				{
					OFFSET 5.783000 0.000000 0.000000
					CHANNELS 3 Zrotation Yrotation Xrotation
					JOINT joint_15
					{
						OFFSET 6.683559 0.000000 0.000000
						CHANNELS 3 Zrotation Yrotation Xrotation
						JOINT joint_16
						{
							OFFSET 0.000000 0.000000 0.000000
							CHANNELS 3 Zrotation Yrotation Xrotation
							End Site
							{
								OFFSET 0.000000 0.000000 0.000000
							}
						}
					}
				}
			}
			JOINT joint_17
			{
				OFFSET -2.136613 1.374050 -0.404650
				CHANNELS 3 Zrotation Yrotation Xrotation
				JOINT joint_18
				{
					OFFSET -0.741900 0.000000 0.000000
					CHANNELS 3 Zrotation Yrotation Xrotation
					JOINT joint_19
					{
						OFFSET -0.744170 0.000000 0.000000
						CHANNELS 3 Zrotation Yrotation Xrotation
						JOINT joint_20
						{
							OFFSET 0.000000 0.000000 0.000000
							CHANNELS 3 Zrotation Yrotation Xrotation
							End Site
							{
								OFFSET 0.000000 0.000000 0.000000
							}
						}
					}
				}
			}
		}
	}
}
MOTION
Frames: 13
Frame Time: 0.031667
0.383414 16.863363 -1.810240 -1.405944 0.763194 0.967095 -26.328928 3.093356 -7.718825 -0.462437 -4.019517 9.577332 -0.689310 -2.592262 -11.059585 0.165686 -2.390917 -6.735542 31.687201 1.306164 -2.707019 -8.224087 -4.639210 9.828358 0.013345 2.074376 -12.751885 -0.110513 2.243834 -5.994631 2.412255 0.985964 -11.066477 -7.261794 2.727478 30.452978 6.123279 -2.728186 19.011792 1.423571 -0.724566 8.044859 -43.196677 -12.822813 15.695421 30.544462 -28.736642 -28.495747 8.402613 4.924367 -2.455133 -6.208180 0.029125 0.063298 41.779830 14.416510 2.252305 -30.586393 30.364612 -30.743621 -6.389200 -5.653713 -0.658709 6.278073 0.021414 0.041970 
0.383318 16.859610 -1.817252 -1.379972 0.747692 0.969901 -30.678152 3.099781 -8.260211 -1.139337 -5.242263 8.164676 -1.582776 -3.073579 -10.949054 0.122093 -1.753848 -5.214916 32.416756 -0.714145 -6.626152 -10.494592 -4.748532 9.569925 0.231961 2.347237 -14.213269 -0.010603 0.685947 -1.837115 2.498233 0.295316 -11.567074 -5.313082 2.971806 32.212487 5.451494 -2.251362 15.963825 1.210364 -0.594959 7.402074 -38.743384 -13.834387 14.674044 24.927499 -23.656854 -26.681273 7.123900 3.651705 -0.292817 -6.120119 0.013757 0.057049 39.300015 13.576140 1.233355 -33.137961 30.505256 -36.414550 -8.354986 -7.264126 -1.270286 6.195077 0.013912 0.035230 
0.359751 16.856756 -1.922252 -1.278687 2.231196 1.264987 -28.207526 3.252257 -6.458928 -0.835611 -2.985530 7.838893 -1.828471 -2.837796 -8.852494 0.057977 -1.471232 -4.154775 31.404478 -1.313116 -7.874448 -10.297579 -5.317373 10.061342 -0.322492 1.869577 -13.834239 -0.005572 -0.433865 1.213871 2.173810 -0.077129 -10.167776 -5.395332 2.925062 36.436714 4.358739 -2.400059 15.196571 1.154885 -0.519907 6.898866 -38.129894 -14.745474 12.397731 21.565262 -19.622488 -27.178326 6.493481 4.033496 -1.781134 -6.061762 0.002131 0.048561 39.808209 11.808081 0.637842 -33.920181 25.697621 -38.734666 -9.740546 -8.285147 -1.231378 6.120182 0.009147 0.028943 
0.356616 16.846096 -1.948889 -0.875224 1.924792 0.723241 -21.959683 2.343358 -3.381415 -0.217164 -1.472853 4.469651 -2.206426 -2.499952 -8.824735 0.034287 -1.186581 -3.354202 29.898312 -2.183236 -6.570054 -10.147981 -4.813475 11.464690 -0.239802 0.947394 -12.864841 -0.003278 -0.293928 0.821027 1.259773 -0.431676 -7.937528 -4.961723 0.064662 39.178138 3.006729 -2.544532 12.184950 1.263707 -0.517856 5.910734 -34.870918 -12.481970 10.170774 21.075357 -19.347021 -30.833700 5.176818 3.071530 -1.087588 -6.047037 -0.004647 0.046446 37.476045 10.682904 -2.116761 -32.176421 23.674068 -44.258698 -8.617460 -7.211051 -1.297322 6.102843 0.007546 0.027512 
0.352688 16.855104 -1.909324 -1.206381 1.764283 0.913657 -23.406410 2.923230 -4.310277 -0.241600 -0.828079 2.266280 -2.789901 -3.965198 -11.626025 0.032828 -1.210316 -3.413591 31.465043 -1.657188 -7.320372 -10.949407 -4.969199 10.032918 -0.104532 0.299321 -14.439857 -0.085545 -1.740762 4.849422 1.838279 -0.716817 -10.650647 -3.617021 0.152703 39.661689 3.360837 -2.325596 12.461607 1.916385 -0.723727 5.279309 -31.566710 -9.546437 9.385859 21.163618 -20.409342 -31.441365 3.161891 1.732845 -0.744379 -6.014884 -0.007216 0.043892 37.163082 10.047874 -2.172693 -31.355515 20.998309 -46.365524 -9.864656 -7.585819 -0.869142 6.072536 0.003895 0.023178 
0.353326 16.855556 -1.907733 -1.240121 1.724975 0.923689 -27.915385 2.614765 -5.964116 -0.466394 -1.057814 2.624174 -2.813650 -3.763407 -10.486420 0.028962 -1.187605 -3.348659 35.909147 -1.607357 -8.851374 -11.813982 -5.426603 8.641788 -0.118568 -0.387300 -15.216605 -0.121035 -2.018684 5.594862 2.281018 -0.597370 -9.898466 -6.187971 -1.238515 42.637707 4.514205 -2.220040 12.734888 3.090174 -1.175866 4.805343 -34.763906 -9.754959 9.564727 22.390970 -20.260871 -33.537069 2.206098 1.237695 -0.522925 -5.992042 -0.009224 0.039240 38.940974 11.537154 -1.852313 -32.559995 19.925085 -48.110045 -10.125361 -7.333486 -1.133538 6.049800 -0.002529 0.016209 
0.353497 16.856457 -1.906577 -1.280150 1.729442 0.936999 -28.145558 3.101246 -5.165693 -0.379964 -0.967853 2.354266 -2.816722 -4.003978 -10.340841 0.013049 -0.867458 -2.449853 37.778513 -1.322116 -8.976380 -12.884389 -6.415973 9.188775 -0.370054 -1.084666 -15.125219 -0.117856 -1.917197 5.277086 1.643090 -0.418107 -8.829397 -6.874553 -2.647202 44.929711 5.498926 -3.199316 14.954083 4.138975 -1.609752 4.294556 -36.681481 -10.140529 8.839606 21.439619 -19.231573 -33.038244 2.654361 1.377136 -0.662547 -5.979606 -0.011425 0.037029 41.264428 11.847973 -2.025171 -34.245594 18.875275 -52.640395 -10.473374 -7.504527 -1.227619 6.041672 -0.008575 0.010074 
0.354524 16.854355 -1.908769 -1.262170 1.675628 0.897137 -30.978257 3.758727 -5.234310 -0.479106 -1.046769 2.483304 -3.079501 -4.262947 -11.343131 0.005146 -0.654742 -1.835160 39.256749 -1.351331 -10.672305 -12.420587 -6.784839 10.821091 -0.464220 -1.835101 -15.443213 -0.119778 -1.878688 5.136710 2.027479 -0.213561 -10.521066 -7.926175 -0.937950 45.970290 5.358569 -3.378256 15.650808 4.414037 -1.819312 4.215815 -39.149145 -12.037151 9.083630 23.470289 -19.565846 -34.701804 0.799165 0.374431 -0.183023 -6.031769 -0.014321 0.035157 43.087633 12.437807 -2.758924 -36.139389 20.564950 -56.650101 -10.306843 -7.600112 -1.279065 6.102436 -0.010629 0.006755 
0.355215 16.853754 -1.910480 -1.258266 1.650171 0.888190 -33.962971 4.612696 -5.363997 -0.583831 -1.377946 3.016435 -3.262856 -4.940344 -12.267608 0.002657 -0.591915 -1.649746 41.056957 -0.298166 -10.922016 -12.544512 -7.120553 10.482088 -0.515970 -1.816261 -15.307794 -0.126194 -1.900173 5.156149 1.943465 -0.257211 -10.307537 -8.421104 -0.020349 46.321034 4.665957 -3.250564 14.980977 4.263702 -1.970983 4.858885 -40.668771 -13.235865 9.692540 26.309583 -18.909618 -37.981923 2.061271 0.991203 -0.504245 -6.108054 -0.018343 0.033041 45.093619 15.594618 -3.637642 -36.176974 22.361519 -58.196499 -10.598967 -7.821155 -1.659015 6.191933 -0.012273 0.003200 
0.354847 16.854204 -1.912898 -1.277922 1.673580 0.855423 -33.033968 4.368625 -3.183909 -0.557502 -1.347857 2.861762 -3.397669 -5.251355 -12.378145 0.002893 -0.640380 -1.782802 41.655020 0.413766 -9.606714 -14.272664 -6.982508 8.989662 -0.492485 -1.561557 -15.471040 -0.141947 -1.983714 5.345270 2.088724 -0.241287 -11.257501 -8.849806 2.166086 46.350608 4.052097 -3.093038 14.303246 4.565480 -2.192743 6.042131 -41.432276 -14.188295 10.433375 28.348454 -18.730700 -40.857965 2.825507 1.486461 -0.718431 -6.233503 -0.020752 0.032324 45.431081 16.971968 -4.920880 -36.376848 21.245132 -59.264589 -9.751594 -7.299404 -1.687393 6.336260 -0.014116 0.000682 
0.355467 16.859909 -1.895105 -1.494062 1.709578 1.028775 -33.614798 4.151919 -2.632709 -0.550772 -1.091270 2.320838 -3.504456 -5.423877 -12.514016 0.003758 -0.676743 -1.890268 41.795883 0.018566 -9.043159 -15.766716 -6.848722 5.285325 -0.546067 -1.448870 -16.399173 -0.142314 -1.977406 5.314079 1.901580 -0.240160 -11.670653 -10.113404 1.893785 46.705955 3.496046 -2.831912 13.253195 5.395973 -2.702751 8.008638 -40.803302 -14.352689 10.598195 27.031307 -17.996180 -40.683770 1.500123 0.772515 -0.415551 -6.388368 -0.020401 0.033359 45.295391 16.325731 -6.251826 -37.229128 21.516105 -60.326644 -10.018550 -7.599347 -1.719899 6.508931 -0.014250 0.000914 
0.355698 16.858559 -1.896486 -1.490068 1.658553 0.979278 -33.703449 4.105096 -2.958873 -0.716398 -1.368255 2.818694 -3.481434 -5.295859 -12.313272 0.003361 -0.647575 -1.816772 42.432037 0.415113 -9.454888 -15.452269 -6.960100 5.139082 -0.673339 -1.483614 -15.742399 -0.134153 -1.904407 5.130374 1.980889 -0.315964 -11.403113 -9.738239 0.288663 47.156600 3.347088 -2.790185 13.292057 6.369875 -3.262226 10.497067 -39.734888 -15.211723 9.956677 26.501060 -17.962902 -40.410548 1.903874 0.980626 -0.544198 -6.508396 -0.019907 0.035019 45.833975 17.375400 -5.566925 -37.045633 20.981330 -60.797527 -10.286963 -7.910442 -1.859405 6.648490 -0.013156 0.003091 
0.356209 16.859009 -1.897598 -1.467705 1.612175 0.967268 -33.980499 4.188579 -2.997344 -0.629071 -1.155295 2.463605 -3.301190 -5.063790 -12.247396 0.003238 -0.648798 -1.822573 42.493304 0.333368 -9.776465 -16.233692 -7.242015 6.106984 -0.753255 -1.720046 -15.685446 -0.130851 -1.867765 5.029765 2.085064 -0.420335 -11.037162 -10.592106 0.339878 47.167770 3.471634 -2.663595 12.947107 7.394786 -4.041303 13.201067 -37.432225 -15.651602 9.169408 26.425782 -18.052350 -40.730585 2.205518 1.135178 -0.604060 -6.529882 -0.021029 0.034940 45.730398 17.808333 -5.642190 -36.383500 20.740867 -60.484753 -9.871874 -7.711343 -1.854587 6.673227 -0.012470 0.004331 
